<mxfile host="app.diagrams.net" modified="2020-11-06T06:28:21.713Z" agent="5.0 (Windows NT 10.0; WOW64) AppleWebKit/537.36 (KHTML, like Gecko) Chrome/83.0.4103.97 Safari/537.36" etag="BkbvZyfd-JqcAUSNZlXI" version="13.9.2" type="github">
  <diagram id="jvrbV9RRo3nedBi6Skto" name="Page-1">
    <mxGraphModel dx="1024" dy="531" grid="1" gridSize="10" guides="1" tooltips="1" connect="1" arrows="1" fold="1" page="1" pageScale="1" pageWidth="827" pageHeight="1169" math="0" shadow="0">
      <root>
        <mxCell id="0" />
        <mxCell id="1" parent="0" />
        <mxCell id="BUAmGt_GoeQWq02jle5p-1" value="" style="rounded=0;whiteSpace=wrap;html=1;fillColor=#f5f5f5;strokeColor=#666666;fontColor=#333333;" parent="1" vertex="1">
          <mxGeometry x="130" y="130" width="560" height="330" as="geometry" />
        </mxCell>
        <mxCell id="BUAmGt_GoeQWq02jle5p-2" value="&lt;span style=&quot;font-size: 14px&quot;&gt;Vue + Vant&lt;/span&gt;" style="text;html=1;strokeColor=none;fillColor=none;align=center;verticalAlign=middle;whiteSpace=wrap;rounded=0;" parent="1" vertex="1">
          <mxGeometry x="380" y="140" width="80" height="20" as="geometry" />
        </mxCell>
        <mxCell id="tv0lIXRngKDj8AsCGsrw-1" value="" style="rounded=0;whiteSpace=wrap;html=1;" vertex="1" parent="1">
          <mxGeometry x="150" y="180" width="120" height="40" as="geometry" />
        </mxCell>
        <mxCell id="tv0lIXRngKDj8AsCGsrw-2" value="" style="rounded=0;whiteSpace=wrap;html=1;" vertex="1" parent="1">
          <mxGeometry x="150" y="230" width="120" height="40" as="geometry" />
        </mxCell>
        <mxCell id="tv0lIXRngKDj8AsCGsrw-3" value="" style="rounded=0;whiteSpace=wrap;html=1;" vertex="1" parent="1">
          <mxGeometry x="150" y="290" width="120" height="40" as="geometry" />
        </mxCell>
        <mxCell id="tv0lIXRngKDj8AsCGsrw-4" value="" style="rounded=0;whiteSpace=wrap;html=1;" vertex="1" parent="1">
          <mxGeometry x="150" y="340" width="120" height="40" as="geometry" />
        </mxCell>
        <mxCell id="tv0lIXRngKDj8AsCGsrw-5" value="" style="rounded=0;whiteSpace=wrap;html=1;" vertex="1" parent="1">
          <mxGeometry x="150" y="400" width="120" height="40" as="geometry" />
        </mxCell>
        <mxCell id="tv0lIXRngKDj8AsCGsrw-6" value="" style="rounded=0;whiteSpace=wrap;html=1;" vertex="1" parent="1">
          <mxGeometry x="310" y="180" width="280" height="190" as="geometry" />
        </mxCell>
      </root>
    </mxGraphModel>
  </diagram>
</mxfile>
